<svg width="16" height="17" viewBox="0 0 16 17" fill="none" xmlns="http://www.w3.org/2000/svg">
<path fill-rule="evenodd" clip-rule="evenodd" d="M8.00002 1.5C8.13263 1.5 8.25981 1.55268 8.35357 1.64645C8.44734 1.74021 8.50002 1.86739 8.50002 2V13.793L11.646 10.646C11.7399 10.5521 11.8672 10.4994 12 10.4994C12.1328 10.4994 12.2601 10.5521 12.354 10.646C12.4479 10.7399 12.5007 10.8672 12.5007 11C12.5007 11.1328 12.4479 11.2601 12.354 11.354L8.35402 15.354C8.30757 15.4006 8.2524 15.4375 8.19165 15.4627C8.13091 15.4879 8.06579 15.5009 8.00002 15.5009C7.93425 15.5009 7.86913 15.4879 7.80839 15.4627C7.74764 15.4375 7.69247 15.4006 7.64602 15.354L3.64602 11.354C3.55213 11.2601 3.49939 11.1328 3.49939 11C3.49939 10.8672 3.55213 10.7399 3.64602 10.646C3.73991 10.5521 3.86725 10.4994 4.00002 10.4994C4.1328 10.4994 4.26013 10.5521 4.35402 10.646L7.50002 13.793V2C7.50002 1.86739 7.5527 1.74021 7.64647 1.64645C7.74024 1.55268 7.86741 1.5 8.00002 1.5Z" fill="#424D79"/>
</svg>
